<svg xmlns="http://www.w3.org/2000/svg" width="431" height="388"><path fill="#FEFEFE" d="M0 0h431v388H0z" id="svg-layer-0" style="pointer-events: all;"/><path fill="#2E6B9C" d="M384 17c1 2 1 2-.01 5.156q-.794 2.07-1.611 4.13l-.88 2.274c-.972 2.503-1.954 5.003-2.937 7.503l-2.058 5.295a5611 5611 0 0 1-5.427 13.893q-3.034 7.751-6.063 15.507l-.985 2.521-.983 2.517-1.968 5.033C353.25 100.835 345.625 120.916 338 141l52 1c-2.839 4.258-5.261 7.54-8.687 11.188-3.402 3.68-6.67 7.409-9.813 11.312-3.837 4.756-7.894 9.255-12.031 13.75-2.413 2.687-4.702 5.44-6.969 8.25-3.837 4.756-7.894 9.255-12.031 13.75-2.413 2.687-4.702 5.44-6.969 8.25-3.84 4.759-7.899 9.26-12.04 13.758-2.37 2.642-4.613 5.349-6.835 8.117-3.867 4.796-7.974 9.294-12.18 13.786-3.924 4.213-7.564 8.603-11.168 13.093-2.495 3.01-5.115 5.885-7.777 8.746-4.286 4.607-8.298 9.371-12.246 14.273-3.177 3.844-6.54 7.502-9.914 11.172a343 343 0 0 0-5.902 6.618l-1.668 1.91q-1.944 2.228-3.883 4.46C231.304 325.52 207.017 340.584 179 345c3.592 9.317 7.88 15.609 17 20 6.898 2.11 13.856 1.926 20.375-1.187 6.853-3.882 10.75-8.558 13.625-15.813l.691-3.418c1.71-4.68 4.029-6.303 8.059-9.02l2.049-1.427c2.05-1.407 4.119-2.777 6.201-4.135l3.297-2.168c30.37-18.556 69.447-27.096 104.773-26.879l3.2.01q3.865.014 7.73.037l-.06-3.988a4901 4901 0 0 1-.406-37.295c-.047-6.391-.11-12.781-.213-19.172-.098-6.173-.152-12.344-.175-18.518q-.024-3.525-.098-7.048c-.412-20.712-.412-20.712 5.288-27.747 1.518-1.45 3.07-2.866 4.664-4.232 1.19-1.377 2.359-2.77 3.5-4.187L381 176h1v140l-27 1c-32.21 2.09-63.023 8.465-92 23l-2.238 1.085c-6.957 3.43-12.77 6.327-15.762 13.915l-.98 3.074c-2.985 8.565-10.937 16.167-18.797 20.434-10.767 5.058-21.974 6.44-33.536 2.867-12.427-4.737-21.053-12.976-26.68-25.016C164 354 164 354 163.396 351.535c-2.227-4.048-5.869-5.655-9.833-7.848l-2.58-1.45c-26.297-14.47-55.51-21.902-85.294-24.487l-2.721-.243C51.297 316.642 39.755 317 28 317V110c25 0 25 0 34 1V81c44.616-.886 91.918 8.124 126 39 6.778 6.689 12.2 13.784 17 22l1.723-2.562c21.589-31.842 54.18-47.039 91.277-54.375 1.998-.366 3.997-.726 6-1.063-4.563 6.406-9.639 12.25-15 18l-1.372 1.541c-1.87 1.677-3.345 2.25-5.733 3.002l-2.458.802-2.625.843C262.949 112.854 250.404 118.698 239 128l-2.648 2.152c-13.006 11.112-21.235 25.832-22.605 43.017a244 244 0 0 0-.005 9.746l.023 3.691q.025 3.93.069 7.859c.045 4.149.059 8.298.066 12.447.023 11.79.064 23.577.192 35.366q.107 9.8.09 19.6c-.005 3.447.01 6.892.075 10.339.071 3.839.057 7.675.036 11.515l.106 3.42c-.09 4.88-.302 7.702-3.759 11.313-4.313 3.228-8.584 5.67-13.64 7.535l-.007-2.07q-.089-25.005-.229-50.01-.07-12.093-.11-24.186a6571 6571 0 0 0-.103-21.097c-.023-3.719-.042-7.437-.049-11.155-.007-4.167-.037-8.333-.07-12.5l.005-3.673c-.21-19.379-6.13-34.87-19.785-48.684-17.93-16.822-41.277-25.474-64.964-30.375l-2.867-.602C98.535 99.65 88.578 99.008 78 98v170l17 1c4.027.57 7.908 1.179 11.875 2l3.15.645c18.409 3.992 36.59 9.977 52.975 19.355.644.36 1.287.722 1.95 1.094C185.974 303.949 185.974 303.949 189 310c-1.809.514-3.622 1.01-5.437 1.5l-3.06.844c-8.492 1.59-13.575.742-20.878-3.844C129.214 290.579 96.939 285.52 62 284l-1-156-17-2v174h12c32.59 1.549 63.633 9.117 93.438 22.25 14.802 6.346 30.504 6.968 45.687 1.355 26.26-10.547 48.324-30.862 59.7-56.859l1.033-2.347c3.869-8.9 7.234-17.98 10.58-27.086C271.794 222.806 277.363 208.404 283 194h-53c2.48-4.135 4.987-7.362 8.25-10.812l2.988-3.215 1.452-1.558c3.813-4.118 7.443-8.398 11.087-12.665l3.098-3.625 1.575-1.844a457 457 0 0 1 9.238-10.469 219 219 0 0 0 8.625-10.125c3.89-4.813 8.016-9.335 12.243-13.848 3.923-4.213 7.563-8.603 11.167-13.093 2.938-3.544 6.06-6.902 9.196-10.27 2.95-3.19 5.741-6.46 8.456-9.851 4.051-5.038 8.397-9.728 12.825-14.43 4.043-4.317 7.796-8.8 11.491-13.418 2.662-3.201 5.464-6.24 8.309-9.277 3.649-3.896 7.157-7.833 10.5-12 4.324-5.386 8.97-10.415 13.68-15.46 3.36-3.605 6.611-7.3 9.82-11.04" id="svg-layer-1" style="pointer-events: all;"/><path fill="#FEFEFE" d="M338 92c1 2 1 2-.228 5.75a568 568 0 0 1-1.893 4.895l-1.023 2.665c-1.09 2.837-2.192 5.67-3.293 8.502q-1.063 2.755-2.124 5.51-2.126 5.522-4.263 11.04C321.75 139.228 318.378 148.115 315 157l41 1-6 7a985 985 0 0 0-4.25 5.25c-3.932 4.83-8.068 9.423-12.285 14.004-2.392 2.665-4.658 5.394-6.902 8.184-3.658 4.534-7.51 8.817-11.475 13.08-3.802 4.11-7.33 8.405-10.842 12.767-3.114 3.764-6.43 7.329-9.738 10.922-4.005 4.46-7.761 9.114-11.508 13.793-1-2-1-2-.343-4.32l1.11-2.937 1.245-3.328 1.379-3.614 1.395-3.708c1.228-3.263 2.466-6.523 3.705-9.782 1.004-2.643 2-5.29 2.997-7.935a5793 5793 0 0 1 6.228-16.472l1.12-2.95c1.318-3.346 2.747-6.648 4.164-9.954h-41c2.967-4.45 5.578-7.87 9.188-11.687 4.403-4.71 8.522-9.574 12.566-14.598 2.334-2.822 4.766-5.52 7.246-8.215a223 223 0 0 0 9.5-11 223 223 0 0 1 9.5-11c4.104-4.46 7.954-9.068 11.758-13.785 3.014-3.65 6.19-7.14 9.394-10.621C336 95 336 95 338 92" id="svg-layer-2" style="pointer-events: all;"/></svg>
