<svg xmlns="http://www.w3.org/2000/svg" width="1024" height="1024"><path fill="#FBFBFA" d="M0 0h1024v1024H0z" id="svg-layer-0" style="pointer-events: all;"/><path fill="#384A5E" d="M379.063 298.75c41.512.045 85.314 11.106 116.445 39.75C511 354.04 511 354.04 511 360c2.47-2.3 4.26-4.756 6.125-7.562 19.716-28.283 52.78-42.87 85.863-49.25 2.668-.452 5.326-.865 8.012-1.188-4.563 6.406-9.639 12.25-15 18l-1.378 1.545c-1.848 1.657-3.258 2.207-5.622 2.928l-2.41.77-2.59.82c-25.617 8.576-46.639 22.357-59 46.937-3.952 9.252-4.132 18.213-4.03 28.142l.046 7.504.03 4c.027 4.14.036 8.28.04 12.42l.003 2.123.006 8.66c.006 8.176.03 16.35.107 24.526q.094 9.764.061 19.528c-.01 3.44-.002 6.876.055 10.316.053 3.838.038 7.67.007 11.51l.096 3.42c-.102 4.88-.325 7.707-3.783 11.316-4.313 3.228-8.582 5.67-13.638 7.535l-.004-2.064q-.056-24.956-.18-49.912a7867 7867 0 0 1-.087-24.139q-.019-10.53-.084-21.06c-.022-3.71-.038-7.421-.037-11.132 0-24.672-1.089-46.28-19.538-64.845C457.617 325.618 419.86 319.32 385 316v170l17 1c4.25.657 8.37 1.354 12.563 2.25l3.244.677C426.41 491.77 434.735 493.97 443 497l2.353.855c14.913 5.497 28.457 12.31 41.46 21.457l1.76 1.238c3.018 2.195 5.384 4.317 7.427 7.45-1.62.517-3.246 1.013-4.875 1.5l-2.742.844c-9.6 1.862-15.202.313-23.445-4.782-26.241-15.192-55.863-21.777-85.934-23.109l-2.927-.134q-3.538-.162-7.077-.319-.233-24.972-.443-49.946-.096-11.6-.205-23.199-.096-10.13-.177-20.26-.043-5.345-.096-10.691c-.173-17.332.02-34.591.921-51.904l-3.138-.203-3.612-.235c-1.253-.08-2.506-.162-3.797-.246C355 345 355 345 351 344v174h13c30.961 1.663 60.334 8.297 88.75 20.766 16.341 7.11 33.236 9.02 50.154 2.5 26.332-10.599 47.876-31.224 59.172-57.221 4.49-10.57 8.448-21.359 12.486-32.108q1.868-4.958 3.74-9.913 1.154-3.055 2.3-6.112c3.023-8.02 6.212-15.948 9.398-23.912h-53c2.527-4.212 4.798-7.108 8.125-10.625 3.606-3.854 7.068-7.757 10.375-11.875 4.11-5.105 8.478-9.911 12.93-14.715 3.262-3.535 6.422-7.149 9.57-10.785q1.968-2.25 3.938-4.5l1.777-2.031L585 356c0 4.142-1.656 5.053-4.5 8-4.455 4.695-8.251 9.625-11.906 14.98L567 381h-2l-1 6 2.813-.562C570 386 570 386 573 387l2-1 2 1v-2h2v-2h2v-2h2v-2a141 141 0 0 1 3.383-3.395c5.584-5.543 10.517-11.62 15.172-17.953L603 356h2l2-4 2 1c-4.66 5.845-9.409 11.53-14.5 17-4.275 4.596-8.315 9.327-12.234 14.234-3 3.663-6.148 7.203-9.266 10.766l40 1c-3.375 11.25-3.375 11.25-5.177 16l-1.212 3.214-1.279 3.356-1.332 3.522q-2.09 5.519-4.187 11.033l-2.85 7.523Q593.487 449.826 590 459c2.72-2.693 5.411-5.377 7.91-8.277l1.542-1.785 1.61-1.875 1.709-1.98q4.225-4.903 8.428-9.825l3.051-3.57 1.503-1.761a446 446 0 0 1 8.934-10.115 226 226 0 0 0 8.688-10.187c3.245-4.013 6.612-7.85 10.125-11.625 5.085-5.469 9.842-11.161 14.5-17l4-5h-41c1.869-6.23 3.73-12.207 6.11-18.219l.878-2.249q1.377-3.518 2.762-7.032l1.805-4.61q1.8-4.596 3.603-9.19c2.966-7.56 5.903-15.13 8.842-22.7 1.197 3.59.716 4.466-.582 7.93l-1.076 2.91-1.154 3.035-1.12 3.012c-1.34 3.594-2.69 7.18-4.133 10.735-1.206 3.069-2.036 6.205-2.935 9.378a643 643 0 0 1-3 9h-2l1 4h3l-1-2 9-1v-3c.44-.43.878-.862 1.33-1.306 2.294-2.327 3.148-4.782 4.377-7.803l.746-1.818c.794-1.938 1.577-3.88 2.36-5.823q.808-1.985 1.62-3.97A2805 2805 0 0 0 656 324l1.144-2.833c1.634-4.05 3.256-8.104 4.856-12.167 1.154 3.461.86 4.048-.431 7.316l-1.022 2.63-1.133 2.831-1.14 2.918a2233 2233 0 0 1-3.649 9.243q-1.817 4.614-3.627 9.231-1.128 2.875-2.267 5.746l-1.041 2.64-.918 2.314C646 356 646 356 645 360h52c-2.527 4.212-4.798 7.108-8.125 10.625-3.625 3.875-7.108 7.8-10.437 11.938A217 217 0 0 1 669 393.5a223 223 0 0 0-9.5 11c-3.837 4.756-7.894 9.255-12.031 13.75-2.413 2.687-4.702 5.44-6.969 8.25-3.838 4.757-7.896 9.258-12.035 13.754-2.392 2.665-4.658 5.394-6.903 8.183-3.658 4.536-7.51 8.82-11.476 13.082a190 190 0 0 0-8.586 9.981c-3.2 3.976-6.526 7.767-10 11.5-4.286 4.607-8.298 9.371-12.246 14.273-3.177 3.844-6.54 7.502-9.914 11.172a343 343 0 0 0-5.903 6.618l-1.675 1.917q-1.908 2.188-3.805 4.383C538.44 543.574 514.989 557.432 486 563c3.994 9.04 7.536 15.788 16.813 19.875 7.46 2.4 14.685 1.776 21.796-1.434 6.577-3.965 10.225-8.994 12.078-16.379 2.387-8.14 8.482-11.776 15.313-16.062l1.814-1.16C588.378 526.12 631.652 517.894 672 518l-.043-3.975a3686 3686 0 0 1-.188-37.205c-.002-6.375-.026-12.749-.102-19.124a1149 1149 0 0 1-.058-18.48q0-3.512-.063-7.026c-.346-20.263-.346-20.263 5.649-27.314 2.465-2.504 5.056-4.683 7.805-6.876l4-4v141h-25c-33.266 2.058-63.868 8.452-94 23l-2.36 1.1c-7.57 3.6-12.746 6.687-16.015 14.837l-1.254 3.622c-3.884 9.748-12.764 16.117-21.855 20.691-9.776 4.165-21.156 4.352-31.18.79-11.61-5.165-19.79-12.537-25.336-24.04-.676-2.348-.676-2.348-1.125-4.5L470 567c-1.83-1.087-1.83-1.087-4-2a251 251 0 0 1-3.59-2.102C451.028 556.245 439.472 551.244 427 547l-2.508-.86c-17.628-5.931-35.537-8.94-54.055-10.39l-3.072-.243c-10.83-.73-21.44-.507-32.365-.507V328c26 0 26 0 34 1l-.108-2.646q-.193-4.845-.374-9.69-.08-2.099-.166-4.198-.122-3.012-.23-6.025l-.144-3.665c.047-5.978 6.384-4.013 11.084-4.026" id="svg-layer-1" style="pointer-events: all;"/><path fill="#1789D6" d="M379.063 298.75c41.512.045 85.314 11.106 116.445 39.75C511 354.04 511 354.04 511 360c2.47-2.3 4.26-4.756 6.125-7.562 19.716-28.283 52.78-42.87 85.863-49.25 2.668-.452 5.326-.865 8.012-1.188-4.563 6.406-9.639 12.25-15 18l-1.378 1.545c-1.848 1.657-3.258 2.207-5.622 2.928l-2.41.77-2.59.82c-25.617 8.576-46.639 22.357-59 46.937-3.952 9.252-4.132 18.213-4.03 28.142l.046 7.504.03 4c.027 4.14.036 8.28.04 12.42l.003 2.123.006 8.66c.006 8.176.03 16.35.107 24.526q.094 9.764.061 19.528c-.01 3.44-.002 6.876.055 10.316.053 3.838.038 7.67.007 11.51l.096 3.42c-.102 4.88-.325 7.707-3.783 11.316-4.313 3.228-8.582 5.67-13.638 7.535l-.004-2.064q-.056-24.956-.18-49.912a7867 7867 0 0 1-.087-24.139q-.019-10.53-.084-21.06c-.022-3.71-.038-7.421-.037-11.132 0-24.672-1.089-46.28-19.538-64.845C457.617 325.618 419.86 319.32 385 316v170l17 1c4.25.657 8.37 1.354 12.563 2.25l3.244.677C426.41 491.77 434.735 493.97 443 497l2.353.855c14.913 5.497 28.457 12.31 41.46 21.457l1.76 1.238c3.018 2.195 5.384 4.317 7.427 7.45-1.62.517-3.246 1.013-4.875 1.5l-2.742.844c-9.6 1.862-15.202.313-23.445-4.782-26.241-15.192-55.863-21.777-85.934-23.109l-2.927-.134q-3.538-.162-7.077-.319-.233-24.972-.443-49.946-.096-11.6-.205-23.199-.096-10.13-.177-20.26-.043-5.345-.096-10.691c-.173-17.334.039-34.59.921-51.904l-18-1-.184 6.77c-.426 15.42-.861 30.83-1.816 46.23h-3v-2c-6.75.875-6.75.875-9 2-2.261-46.712-2.261-46.712-2-70 4.167-.03 8.333-.047 12.5-.062l3.555-.026c6.083-.017 11.933.143 17.945 1.088l-.108-2.646q-.193-4.845-.374-9.69-.08-2.099-.166-4.198-.122-3.012-.23-6.025l-.144-3.665c.047-5.978 6.384-4.013 11.084-4.026" id="svg-layer-2" style="pointer-events: all;"/><path fill="#1194DF" d="M692 233c1 2 1 2 .466 3.933l-.938 2.395-1.056 2.73-1.179 2.977-1.202 3.087a3109 3109 0 0 1-3.904 9.94l-2.64 6.752C675.775 279.572 669.966 294.318 664 309h-2l-.487 1.755c-2.024 7.034-4.58 13.776-7.326 20.558l-1.335 3.32c-3.065 7.565-6.265 15.032-9.852 22.367h-2l2 2-3.312.875C636 361 636 361 633 363c-2.187-.375-2.187-.375-4-1v-4h2l-.187-2.187c.226-3.403 1.405-4.934 3.187-7.813a415 415 0 0 0 2-7 449 449 0 0 1 2.563-7.75c.22-.659.442-1.317.67-1.996q.881-2.628 1.767-5.254l1-3c-5.48 13.555-10.797 27.169-16.05 40.813l-.77 1.999-2.092 5.433C622 374 622 374 621 376h41c-1.81 3.621-3.35 5.658-6.062 8.563a216 216 0 0 0-9.313 10.812c-3.681 4.554-7.553 8.86-11.539 13.144a190 190 0 0 0-8.586 9.981c-3.2 3.976-6.526 7.767-10 11.5-4.302 4.624-8.335 9.405-12.3 14.324A217 217 0 0 1 589 461c2.16-7.655 4.806-15.068 7.633-22.5l1.325-3.508q1.377-3.64 2.758-7.28 2.121-5.591 4.233-11.185l2.684-7.09 1.281-3.386 1.184-3.117 1.043-2.749C612 398 612 398 613 396h-41c2.967-4.45 5.578-7.87 9.188-11.687 4.371-4.675 8.458-9.502 12.464-14.497 3.153-3.781 6.495-7.373 9.895-10.933C607 355.212 607 355.212 607 353l-2 3h-2l-.833 1.795c-1.117 2.11-2.28 3.692-3.847 5.482l-1.566 1.807-1.629 1.853-3.18 3.653-1.53 1.75c-1.273 1.493-2.478 3.045-3.673 4.601L585 379h-2v2h-2v2h-2v2h-2v2c-5.43.7-10.524 1-16 1l1.438-2.375c.901-1.514 1.774-3.049 2.562-4.625h2l.773-1.707c1.383-2.586 3.009-4.7 4.852-6.98l2.14-2.649c2.755-3.284 5.633-6.439 8.57-9.559C585 358 585 358 585.88 355.621c1.527-3.57 4.016-6.003 6.683-8.746 3.829-4.034 7.52-8.093 11-12.437 4.093-5.096 8.45-9.885 12.887-14.676 4.213-4.562 8.265-9.252 12.293-13.977l3.07-3.598 1.568-1.836a418 418 0 0 1 9.808-11.038 219 219 0 0 0 9.25-10.75c4.14-5.13 8.535-9.968 13.011-14.801 3.257-3.527 6.42-7.123 9.551-10.762l1.38-1.604c5.248-6.098 10.482-12.204 15.62-18.396" id="svg-layer-3" style="pointer-events: all;"/><path fill="#324252" d="m411.266 643.832 2.861-.01q3.017-.007 6.033-.007c3.035-.002 6.07-.02 9.106-.04 19.715-.058 36.632.994 51.671 15.034C487.443 665.55 491.47 674.623 492 684l.117 2.035c.383 12.052-2.655 22.691-10.242 32.153-9.618 10.216-22.102 14.627-35.87 15.13-6.816.122-13.627.032-20.442-.068q-3.584-.03-7.167-.055-8.698-.066-17.396-.195-.034-17.185-.052-34.37-.007-7.979-.023-15.957-.016-7.693-.02-15.386-.003-2.942-.01-5.884-.01-4.105-.009-8.211l-.01-2.483c.015-8.35 2.942-6.868 10.39-6.877" id="svg-layer-4" style="pointer-events: all;"/><path fill="#37485B" d="m250 644 21.5-.187 6.678-.083c18.381-.134 36.077.799 50.26 13.957 4.623 4.936 7.353 9.956 9.562 16.313l.738 1.98c3.39 10.814 1.714 22.819-2.738 33.02-6.146 11-14.714 18.022-26.718 21.872-7.255 1.915-13.907 2.534-21.391 2.421l-2.942-.01c-3.567-.015-7.133-.057-10.699-.096L250 733z" id="svg-layer-5" style="pointer-events: all;"/><path fill="#496178" d="M662 309c1.154 3.461.86 4.048-.431 7.316l-1.022 2.63-1.133 2.831-1.14 2.918a2233 2233 0 0 1-3.649 9.243q-1.817 4.614-3.627 9.231-1.128 2.875-2.267 5.746l-1.041 2.64-.918 2.314C646 356 646 356 645 360h52c-2.527 4.212-4.798 7.108-8.125 10.625-3.625 3.875-7.108 7.8-10.437 11.938A217 217 0 0 1 669 393.5a223 223 0 0 0-9.5 11c-3.837 4.756-7.894 9.255-12.031 13.75-2.413 2.687-4.702 5.44-6.969 8.25-3.838 4.757-7.896 9.258-12.035 13.754-2.392 2.665-4.658 5.394-6.903 8.183-3.658 4.536-7.51 8.82-11.476 13.082a190 190 0 0 0-8.586 9.981c-3.2 3.976-6.526 7.767-10 11.5-4.286 4.607-8.298 9.371-12.246 14.273-3.175 3.84-6.535 7.497-9.906 11.164-3.178 3.469-6.265 7.011-9.348 10.563l-3.937 4.5-1.778 2.031L553 527c-.553-2.076-1-3.844-1-6l-7-1v-2h-2c-.283-2.974-.381-4.486 1.434-6.93.66-.642 1.322-1.284 2.004-1.945 11.358-12.257 16.891-27.459 22.707-42.86a6930 6930 0 0 1 2.91-7.687 8021 8021 0 0 0 9.144-24.229l1.092-2.907a3660 3660 0 0 0 2.033-5.427l.934-2.486.803-2.147c1.244-3.156 2.603-6.264 3.939-9.382h-53c2.527-4.212-4.798-7.108 8.125-10.625 3.606-3.854 7.068-7.757 10.375-11.875 4.11-5.105 8.478-9.911 12.93-14.715 3.262-3.535 6.422-7.149 9.57-10.785a6081 6081 0 0 1 5.715-6.531L585 356c0 4.142-1.656 5.053-4.5 8-4.455 4.695-8.251 9.625-11.906 14.98L567 381h-2l-1 6 2.813-.562C570 386 570 386 573 387l2-1 2 1v-2h2v-2h2v-2h2v-2a141 141 0 0 1 3.383-3.395c5.584-5.543 10.517-11.62 15.172-17.953L603 356h2l2-4 2 1c-4.66 5.845-9.409 11.53-14.5 17-4.275 4.596-8.315 9.327-12.234 14.234-3 3.663-6.148 7.203-9.266 10.766l40 1c-3.375 11.25-3.375 11.25-5.177 16l-1.212 3.214-1.279 3.356-1.332 3.522q-2.09 5.519-4.187 11.033l-2.85 7.523Q593.487 449.826 590 459c2.72-2.693 5.411-5.377 7.91-8.277l1.542-1.785 1.61-1.875 1.709-1.98q4.225-4.903 8.428-9.825l3.051-3.57 1.503-1.761a446 446 0 0 1 8.934-10.115 226 226 0 0 0 8.688-10.187c3.245-4.013 6.612-7.85 10.125-11.625 5.085-5.469 9.842-11.161 14.5-17l4-5h-41c1.869-6.23 3.73-12.207 6.11-18.219l.878-2.249q1.377-3.518 2.762-7.032l1.805-4.61q1.8-4.596 3.603-9.19c2.966-7.56 5.903-15.13 8.842-22.7 1.197 3.59.716 4.466-.582 7.93l-1.076 2.91-1.154 3.035-1.12 3.012c-1.34 3.594-2.69 7.18-4.133 10.735-1.206 3.069-2.036 6.205-2.935 9.378a643 643 0 0 1-3 9h-2l1 4h3l-1-2 9-1v-3c.44-.43.878-.862 1.33-1.306 2.294-2.327 3.148-4.782 4.377-7.803l.746-1.818c.794-1.938 1.577-3.88 2.36-5.823q.808-1.985 1.62-3.97A2805 2805 0 0 0 656 324l1.144-2.833c1.634-4.05 3.256-8.104 4.856-12.167" id="svg-layer-6" style="pointer-events: all;"/><path fill="#344456" d="m539.041 643.886 2.65.016 2.862.01 3.01.025L558 644c9.326 19.623 18.564 39.281 27.557 59.06l.938 2.062 1.814 3.996a583 583 0 0 0 4.706 10.118l.988 2.08a551 551 0 0 0 1.884 3.911C597.22 728.03 598 729.852 598 733h-22l-8-18h-42l-7 17c-1 1-1 1-3.041 1.114l-2.65-.016-2.862-.01-3.01-.025-3.021-.014A2110 2110 0 0 1 497 733c.645-4.305 2.199-7.972 4.035-11.879l.94-2.037q1.01-2.183 2.025-4.364c1.822-3.915 3.628-7.837 5.434-11.76l1.136-2.464c4.791-10.42 9.41-20.915 14.024-31.414 11.018-25.005 11.018-25.005 14.447-25.196" id="svg-layer-7" style="pointer-events: all;"/><path fill="#4C6176" d="M688 394h1v141h-25c-34.586 2.14-66.393 9.041-97.469 24.754-2.536 1.248-4.745 1.836-7.531 2.246v-2l4-1v-2l-3-1 1-3-3-1-1-6c36.028-18.669 74.255-28.108 115-28l-.043-3.975a3686 3686 0 0 1-.188-37.205c-.002-6.375-.026-12.749-.102-19.124a1149 1149 0 0 1-.058-18.48q0-3.512-.063-7.026c-.346-20.267-.346-20.267 5.698-27.314 2.454-2.473 5.068-4.659 7.756-6.876a101 101 0 0 0 3-4" id="svg-layer-8" style="pointer-events: all;"/><path fill="#FBFBFA" d="M644 312c1 2 1 2 .51 3.859l-.889 2.32-1.023 2.705-1.16 2.991-1.188 3.112a2252 2252 0 0 1-3.447 8.941q-1.298 3.35-2.592 6.7a8801 8801 0 0 1-9.367 24.145l-.826 2.125c-1.902 4.87-1.902 4.87-3.018 7.102h41c-1.81 3.621-3.35 5.658-6.062 8.563a216 216 0 0 0-9.313 10.812c-3.681 4.554-7.553 8.86-11.539 13.144a190 190 0 0 0-8.586 9.981c-3.2 3.976-6.526 7.767-10 11.5-4.302 4.624-8.335 9.405-12.3 14.324A217 217 0 0 1 589 461c2.16-7.655 4.806-15.068 7.633-22.5l1.325-3.508q1.377-3.64 2.758-7.28 2.121-5.591 4.233-11.185l2.684-7.09 1.281-3.386 1.184-3.117 1.043-2.749C612 398 612 398 613 396h-41c2.967-4.45 5.578-7.87 9.188-11.687 3.584-3.834 7.023-7.718 10.312-11.813 3.2-3.976 6.526-7.767 10-11.5 4.29-4.61 8.304-9.378 12.254-14.285 2.334-2.822 4.766-5.52 7.246-8.215 4.101-4.456 7.948-9.062 11.75-13.773 3.607-4.371 7.42-8.552 11.25-12.727" id="svg-layer-9" style="pointer-events: all;"/><path fill="#344457" d="M684 653c2.002 1.922 3.428 3.699 5 6a790 790 0 0 1-5.25 5.438l-1.488 1.564c-2.007 2.047-3.811 3.785-6.418 5.018-2.577-.028-3.311-.953-5.094-2.77-6.506-5.902-12.805-6.841-21.5-6.59-7.08.74-12.31 2.908-17.187 8.153-6.5 8.399-7.073 15.635-6.063 26.187 1.961 7.55 6.516 12.745 13 17 6.853 3.628 15.13 3.57 22.531 1.871 4.59-1.62 10.22-4.374 12.469-8.871 4.01 1.337 6.306 2.992 9.188 6.063 3.644 3.853 3.644 3.853 5.812 4.937-3.006 6.8-8.896 10.772-15.5 13.813-14.06 5.348-28.742 5.372-42.812 0-11.446-5.221-20.2-13.748-24.907-25.516-4.307-12.664-3.47-26.14 2.219-38.297 6.887-11.287 16.854-18.839 29.395-22.746C653.919 640.28 670.24 643.132 684 653" id="svg-layer-10" style="pointer-events: all;"/><path fill="#394A5F" d="M384 317h1v169l17 1c4.25.657 8.37 1.354 12.563 2.25l3.244.677C426.41 491.77 434.735 493.97 443 497l2.353.855c14.913 5.497 28.457 12.31 41.46 21.457l1.76 1.238c3.018 2.195 5.384 4.317 7.427 7.45-1.62.517-3.246 1.013-4.875 1.5l-2.742.844c-9.6 1.862-15.202.313-23.445-4.782C435.07 508.272 402.998 503.62 369 502V377h1l2 23h2v2h2v-2a100 100 0 0 1 5 0l1 1c.943-17.412 1.287-34.82 1.532-52.251q.078-5.393.161-10.784.159-10.482.307-20.965" id="svg-layer-11" style="pointer-events: all;"/><path fill="#354558" d="m702.01 643.876 2.172.01h2.276c2.495 0 4.989.009 7.483.016l5.175.005q6.824.006 13.647.024 6.957.014 13.915.02 13.661.016 27.322.049.29 4.218.563 8.438l.17 2.431c.129 2.042.202 4.086.267 6.131l-1 1h-28v71h-21c-1.444-2.888-1.075-5.335-1.022-8.561l.03-2.04c.032-2.23.073-4.459.113-6.688l.072-4.632q.096-6.102.202-12.202.104-6.224.2-12.447.196-12.216.405-24.43h-29l-.062-8.437-.028-2.662c-.007-1.967.04-3.935.09-5.901 1.685-1.685 3.763-1.12 6.01-1.124" id="svg-layer-12" style="pointer-events: all;"/><path fill="#057AF3" d="M370 301c29.842-.603 57.28 2.579 85 14q2.5 1.002 5 2v2l2.313.438C465 320 465 320 468 321v2c2.647 1.46 3.894 2 7 2l2 5h-5l1.875.75c2.52 1.483 3.137 2.534 4.125 5.25v3l4-1-2 4c-3 0-3 0-5-1v-2h-3v-2l-1.812-.437c-1.75-.45-3.475-.992-5.188-1.563v-2l-1.633-.36c-2.84-.768-5.504-1.811-8.242-2.89q-3.562-1.376-7.125-2.75c-1.111-.43-2.222-.859-3.367-1.3-17.683-6.596-35.826-9.629-54.633-10.7v1l-6 1-1 42-2-2c-2.5.125-2.5.125-5 1-1.312 2.063-1.312 2.063-2 4-3.768-4.148-3.436-7.94-3.594-13.32L370 346c-3.021-2.014-3.807-2.268-7.23-2.414l-2.432-.117-2.526-.094-2.56-.117A970 970 0 0 0 349 343v7c-4.054 1.158-6.218.837-10-1l-2 2v-21h32z" id="svg-layer-13" style="pointer-events: all;"/><path fill="#3C81B0" d="M662 309c1.154 3.461.86 4.048-.431 7.316l-1.022 2.63-1.133 2.831-1.14 2.918a2233 2233 0 0 1-3.649 9.243q-1.817 4.614-3.627 9.231-1.128 2.875-2.267 5.746l-1.041 2.64-.918 2.314C646 356 646 356 645 360h52c-2.527 4.212-4.798 7.108-8.125 10.625-3.625 3.875-7.108 7.8-10.437 11.938A217 217 0 0 1 669 393.5a223 223 0 0 0-9.5 11c-6.129 7.57-12.376 15.01-19.969 21.152-1.651 1.454-2.972 3.005-4.343 4.723L633 433h-2v2c-3.622 1.491-7.276 2.787-11 4v2l-6-3 1-5h2l.813-1.75C619 429 619 429 620.5 427.063c1.5-2.063 1.5-2.063 2.27-4.329 1.55-3.445 3.832-5.86 6.418-8.546l3.015-3.215 1.47-1.558c2.868-3.058 5.592-6.24 8.327-9.415l1.332-1.54a3407 3407 0 0 0 4.606-5.335l1.448-1.675c4.343-5.055 8.442-10.235 12.614-15.45h-41c1.869-6.23 3.73-12.207 6.11-18.219l.878-2.249q1.377-3.518 2.762-7.032l1.805-4.61q1.8-4.596 3.603-9.19c2.966-7.56 5.903-15.13 8.842-22.7 1.197 3.59.716 4.466-.582 7.93l-1.076 2.91-1.154 3.035-1.12 3.012c-1.34 3.594-2.69 7.18-4.133 10.735-1.206 3.069-2.036 6.205-2.935 9.378a643 643 0 0 1-3 9h-2l1 4h3l-1-2 9-1v-3l1.33-1.306c2.294-2.327 3.148-4.782 4.377-7.803l.746-1.818c.794-1.938 1.577-3.88 2.36-5.823q.808-1.985 1.62-3.97A2805 2805 0 0 0 656 324l1.144-2.833c1.634-4.05 3.256-8.104 4.856-12.167" id="svg-layer-14" style="pointer-events: all;"/><path fill="#FBFBFA" d="M422 662c4.458-.112 8.916-.188 13.375-.25l3.793-.102c8.997-.094 16.333.713 23.488 6.5l1.844 2.227 1.906 2.21c4.734 7.172 4.603 16.126 3.594 24.415-2.073 7.54-6.335 12.115-13 16-7.197 3.686-15.496 3.156-23.375 3.125l-3.059.012-2.902-.004-2.642-.004C423 716 423 716 422 715a85 85 0 0 1-.114-4.979v-3.215l.016-3.497.005-3.56c.005-3.771.018-7.541.03-11.312q.009-3.822.014-7.646.017-9.395.049-18.791M271 662c32.158 0 32.158 0 39.875 6.375 5.39 6.657 8.661 12.64 8.371 21.457-.895 7.886-3.671 14.474-9.246 20.168-11.246 8.38-25.619 6-39 6z" id="svg-layer-15" style="pointer-events: all;"/><path fill="#354658" d="m362.438 643.867 2.71-.004 2.852.012 2.852-.012 2.71.004 2.504.004C378 644 378 644 379 645c.095 2.739.126 5.452.114 8.192v2.601c0 2.852-.009 5.703-.016 8.555l-.005 5.914q-.006 7.8-.024 15.6-.014 7.953-.02 15.906c-.01 10.41-.029 20.821-.049 31.232h-22q-.034-17.185-.052-34.37-.007-7.979-.023-15.957-.016-7.693-.02-15.386-.003-2.942-.01-5.884-.01-4.105-.009-8.211l-.01-2.483c.012-6.834.012-6.834 5.562-6.842" id="svg-layer-16" style="pointer-events: all;"/><path fill="#3775A4" d="m607 352 2 1c-4.66 5.845-9.409 11.53-14.5 17-4.275 4.596-8.315 9.327-12.234 14.234-3 3.663-6.148 7.203-9.266 10.766l40 1c-1.885 6.283-3.774 12.434-6.062 18.563l-.776 2.15c-1.924 5.168-1.924 5.168-4.162 6.287a107 107 0 0 0-2.625 6.063l-1.352 3.347L597 435l-5-1-1-8-3 1c-1-2-1-2-.441-4.059l.879-2.378c1.03-2.806 1.562-4.536 1.562-7.563l-53-1c2.527-4.212 4.798-7.108 8.125-10.625 3.606-3.854 7.068-7.757 10.375-11.875 4.11-5.105 8.478-9.911 12.93-14.715 3.262-3.535 6.422-7.149 9.57-10.785q1.968-2.25 3.938-4.5l1.777-2.031L585 356c0 4.142-1.656 5.053-4.5 8-4.455 4.695-8.251 9.625-11.906 14.98L567 381h-2l-1 6 2.813-.562C570 386 570 386 573 387l2-1 2 1v-2h2v-2h2v-2h2v-2a141 141 0 0 1 3.383-3.395c5.584-5.543 10.517-11.62 15.172-17.953L603 356h2z" id="svg-layer-17" style="pointer-events: all;"/><path fill="#577A94" d="M688 394h1v141l-4-1h3l-1-25-4-2 2-2h-8v2l-2-1a109 109 0 0 1-1-7h-1c-.28-11.249-.492-22.496-.622-33.748-.062-5.226-.147-10.45-.283-15.674-.132-5.05-.203-10.1-.234-15.153a255 255 0 0 0-.13-5.753c-.54-16.565-.54-16.565 5.498-23.516 2.478-2.526 5.106-4.828 7.771-7.156a119 119 0 0 0 3-4" id="svg-layer-18" style="pointer-events: all;"/><path fill="#1567CC" d="M382.166 298.747C398.27 298.9 414.37 301.12 430 305v2l-1.922-.332q-3.092-.524-6.187-1.027c-2.725-.449-5.44-.919-8.157-1.407-14.524-2.497-29.02-2.945-43.734-3.234l.016 2.646q.025 4.845.039 9.69.008 2.099.02 4.198c.013 2.008.018 4.017.023 6.025l.016 3.665C370 330 370 330 369 331c-2.378.017-4.723-.029-7.098-.121l-2.148-.072q-3.408-.116-6.817-.245l-4.61-.158c-3.776-.128-7.552-.266-11.327-.404l1 18 4.438 1 2.496.563C347 350 347 350 348 350l1-7c2.917-.081 5.832-.14 8.75-.187l2.5-.077c3.483-.042 6.08-.035 9.29 1.397 2.057 2.63 1.997 4.623 2.085 7.93.181 5.743.181 5.743 2.375 7.937l1.75-2.062L378 356l4 1 1-41h1q.036 11.726.052 23.45.007 5.45.023 10.898c.054 17.242-.112 34.43-1.075 51.652l-7-2v2h-2v-2l-3 1c-1.125-8.017-1.096-15.921-1-24l-2-1 1-30-18-1-.184 6.77c-.426 15.42-.861 30.83-1.816 46.23h-3v-2c-6.75.875-6.75.875-9 2-2.261-46.712-2.261-46.712-2-70 4.167-.03 8.333-.047 12.5-.062l3.555-.026c6.083-.017 11.933.143 17.945 1.088l-.108-2.646q-.193-4.845-.374-9.69-.08-2.099-.166-4.198-.122-3.012-.23-6.025l-.144-3.665c.05-6.464 9.26-4.024 14.188-4.03" id="svg-layer-19" style="pointer-events: all;"/><path fill="#45617C" d="M504 407h1l.184 3.867.253 5.008.12 2.55.127 2.442.11 2.254C506 425 506 425 507 427c2.504.852 2.504.852 5.563 1.625 1.011.26 2.023.52 3.066.79L518 430l1-11h1c.255 12.248.45 24.495.57 36.745.057 5.689.135 11.375.26 17.063.12 5.492.185 10.982.214 16.476q.03 3.138.119 6.277c.446 16.354.446 16.354-3.51 21.479-4.319 3.242-8.644 4.956-13.653 6.96z" id="svg-layer-20" style="pointer-events: all;"/><path fill="#2A5E94" d="M384 317h1v169h-1l-.148-3.648-.227-4.727c-.03-.794-.062-1.588-.094-2.406-.304-5.992-.304-5.992-2.531-8.219-1.875-.16-1.875-.16-4-.062-3.803.16-3.803.16-6-.938-1.28-3.84-1.374-7.564-1.559-11.574l-.128-2.753c-.56-13.74-.424-27.498-.382-41.246q.014-5.674.02-11.347.016-11.04.049-22.08h1l2 23h2v2h2v-2a100 100 0 0 1 5 0l1 1c.943-17.412 1.287-34.82 1.532-52.251q.078-5.393.161-10.784.159-10.482.307-20.965" id="svg-layer-21" style="pointer-events: all;"/><path fill="#275B92" d="M350 345h1q.035 17.084.052 34.167.007 7.937.023 15.872.016 7.684.02 15.367.003 2.906.01 5.812c.027 9.87-.065 19.712-.549 29.572l-.117 2.41c-.289 5.295-.815 10.534-1.439 15.8h-3v-2c-3.875-1.076-5.525-.946-9 1-2.053-24.195-2.252-48.264-2.137-72.531.02-4.923.03-9.845.04-14.768q.031-14.35.097-28.701h1l.076 2.76c.931 33.406.931 33.406 1.924 47.24l3-1a100 100 0 0 1 5 0v2h3l-.035-2.96c-.126-16.69.492-33.363 1.035-50.04" id="svg-layer-22" style="pointer-events: all;"/><path fill="#354657" d="M420 761c3.208-.088 6.416-.14 9.625-.187l2.738-.077c5.325-.058 9.048.24 13.637 3.264 4.348 4.7 5.369 8.475 5.277 14.719-.597 4.916-3.413 7.57-7.09 10.593-7.003 3.708-15.425 3.07-23.187 2.688-1-1-1-1-1.114-3.867l.016-3.793.005-2.014c.005-2.13.018-4.259.03-6.389q.009-2.16.014-4.322.017-5.307.049-10.615" id="svg-layer-23" style="pointer-events: all;"/><path fill="#1E83C7" d="M612 325c0 3.917-1.226 4.642-3.875 7.438-4.866 5.153-4.866 5.153-6.125 8.562l1 2c2.77.729 5.129 1 8 1l2 1v-2c1.61-1.55 1.61-1.55 3.75-3.312 3.168-2.676 5.68-5.427 8.25-8.688h2c-1.594 3.795-4.019 6.384-6.812 9.375-2.784 3-5.53 5.973-8.063 9.188-2.019 2.315-3.362 3.253-6.125 4.437l-1 2h-2l-.833 1.795c-1.117 2.11-2.28 3.692-3.847 5.482l-1.566 1.807-1.629 1.853-3.18 3.653-1.53 1.75c-1.273 1.493-2.478 3.045-3.673 4.601L585 379h-2v2h-2v2h-2v2h-2v2c-5.43.7-10.524 1-16 1l1.438-2.375c.901-1.514 1.774-3.049 2.562-4.625h2l.773-1.707c1.383-2.586 3.009-4.7 4.852-6.98l2.14-2.649c2.755-3.284 5.633-6.439 8.57-9.559C585 358 585 358 585.88 355.621c1.527-3.57 4.016-6.003 6.683-8.746a231 231 0 0 0 13.5-15.535c1.868-2.255 3.834-4.306 5.938-6.34" id="svg-layer-24" style="pointer-events: all;"/><path fill="#3587BD" d="M682 761c3.229-.088 6.458-.14 9.688-.187l2.763-.077c5.005-.054 8.508-.06 12.549 3.264 2.341 3.01 2.421 6.28 2.316 10.035-.516 3.208-1.967 4.806-4.316 6.965-4.578 2.827-9.803 2.182-15 2l.063 3.938A59 59 0 0 1 690 791c-1 1-1 1-4 1.125-3-.125-3-.125-4-1.125-.088-2.219-.107-4.44-.098-6.66l.005-2.014c.005-2.13.018-4.259.03-6.389q.009-2.16.014-4.322.017-5.307.049-10.615" id="svg-layer-25" style="pointer-events: all;"/><path fill="#324151" d="m648 761 9.125-.25 2.84-.11c5.665-.075 8.71.63 13.035 4.36 1.867 3.733 1.695 7.946 1 12-2.103 2.874-4.828 4.414-8 6-1.874.07-3.75.084-5.625.063l-3.04-.028L655 783l.063 3.938A59 59 0 0 1 655 791l-1 1h-6z" id="svg-layer-26" style="pointer-events: all;"/><path fill="#2D74AB" d="M495 363c9.057 7.921 10.425 22.857 12 34l1-3h4l2 2c3 0 3 0 5-1l-.14-1.73c-.455-10.204 2.589-19.745 8.14-28.27l1 2c-1.085 2.893-2.386 5.661-3.676 8.469-3.495 9.32-3.657 18.6-3.824 28.469-.15 8.892-.553 17.363-2.5 26.062l-3 1-3-2-3.125-1C506 427 506 427 505 425a212 212 0 0 1-.395-7.508q-.102-2.341-.209-4.683a994 994 0 0 1-.295-7.331c-.525-14.216-2.023-27.838-9.101-40.478z" id="svg-layer-27" style="pointer-events: all;"/><path fill="#3A4E62" d="M557 761h8v12h13v-12h8q.037 6.381.055 12.762.008 2.173.02 4.345c.013 2.078.018 4.155.023 6.233l.016 3.793C586 791 586 791 585 792c-3 .125-3 .125-6 0-1-1-1-1-1.098-3.723L578 779h-13v12c-1 1-1 1-4 1.125-3-.125-3-.125-4-1.125-.088-2.219-.107-4.44-.098-6.66l.005-2.014c.005-2.13.018-4.259.03-6.389q.009-2.16.014-4.322.017-5.307.049-10.615" id="svg-layer-28" style="pointer-events: all;"/><path fill="#344556" d="M329.848 760.902 336 761q2.784 6.137 5.554 12.28.944 2.091 1.892 4.179 1.36 3 2.71 6.002l.862 1.89C349 789.773 349 789.773 349 792c-3.312.313-3.312.313-7 0-1.956-2.397-3-3.876-3-7h-15l-1 5c-2 2-2 2-5.125 2.125L315 792c.568-4.335 1.63-7.84 3.469-11.8l1.48-3.21 1.551-3.303 1.55-3.36c4.314-9.293 4.314-9.293 6.798-9.425" id="svg-layer-29" style="pointer-events: all;"/><path fill="#334353" d="M620 761h8q2.526 5.402 5.043 10.809a992 992 0 0 0 3.758 7.976l1.636 3.465 1.497 3.14C641 789 641 789 641 792h-7l-3-6h-14l-2 5c-2.709 1.354-5.01 1.065-8 1 2.218-7.127 5.048-13.796 8.188-20.562l1.404-3.057Q618.29 764.687 620 761" id="svg-layer-30" style="pointer-events: all;"/><path fill="#37495A" d="M489 761h24v5c-1 1-1 1-4.379 1.098q-2.091-.01-4.183-.035l-2.155-.014q-2.64-.02-5.283-.049v6h14v6h-14l1 6 3.246-.035 4.192-.028 2.142-.025c1.807-.009 3.614.036 5.42.088 1 1 1 1 1.125 3.5C514 791 514 791 513 792a91 91 0 0 1-5.129.098l-3.135-.01-3.298-.025-3.311-.014q-4.064-.018-8.127-.049c-1.435-2.87-1.112-5.335-1.098-8.54l.01-3.944.026-4.141q.008-2.082.013-4.164.02-5.106.049-10.211" id="svg-layer-31" style="pointer-events: all;"/><path fill="#36485A" d="M388 761h23v6h-16v6h15v5c-1 1-1 1-4.16 1.098l-3.902-.035-3.91-.028L395 779v6l3.465-.035 4.473-.028 2.287-.025c1.925-.009 3.85.036 5.775.088 1 1 1 1 1.125 3.5C412 791 412 791 411 792c-1.623.1-3.25.13-4.875.133l-2.984.004-3.141-.012-3.14.012-2.985-.004-2.758-.004C389 792 389 792 388 791c-.088-2.219-.107-4.44-.098-6.66l.005-2.014c.005-2.13.018-4.259.03-6.389q.009-2.16.014-4.322c.01-3.538.03-7.077.049-10.615" id="svg-layer-32" style="pointer-events: all;"/><path fill="#FBFBFA" d="M546 666h2q2.692 6.311 5.375 12.625l1.54 3.605 1.483 3.497 1.365 3.205c1.2 2.977 2.222 6.023 3.237 9.068h-28c8.736-21.913 8.736-21.913 13-32" id="svg-layer-33" style="pointer-events: all;"/><path fill="#334454" d="M547 763c1.438 2.188 1.438 2.188 2 4l-3 3-2-1c-4.03-1.343-6.744-1.405-11-1-2.5 1.5-2.5 1.5-4 4-.676 3.792-.478 6.902 1.063 10.438 2.92 2.355 5.232 2.498 8.937 2.562 1.68-.977 3.35-1.974 5-3 2.25.563 2.25.563 4 2 .75 2.125.75 2.125 1 4-5.69 3.958-10.1 4.925-17 4-5.281-1.794-7.799-4.61-11-9-1.676-5.029-1.606-9.34.188-14.25 6.255-9.49 16.198-11.028 25.812-5.75" id="svg-layer-34" style="pointer-events: all;"/><path fill="#3D7DA9" d="M688 397c.095 10.063.176 20.133-.312 30.188l-.176 3.855L687 434l-3 2v3h-2l-1-2-3 1v-4h-2l-1 2c-.369-4.998-.695-9.997-1-15l-.207-2.79c-.403-8.676 5.029-13.308 10.402-19.452C686 397 686 397 688 397" id="svg-layer-35" style="pointer-events: all;"/><path fill="#3A4E61" d="M456 761h27v5c-1 1-1 1-3.066 1.098l-2.497-.035-2.503-.028L473 767l.016 2.187q.029 4.875.046 9.75l.026 3.444.01 3.271.016 3.031C473 791 473 791 472 792c-3 .125-3 .125-6 0-1-1-1-1-1.114-3.317l.016-3.03.01-3.272.026-3.443.013-3.456q.018-4.241.049-8.482h-9z" id="svg-layer-36" style="pointer-events: all;"/><path fill="#FBFBFA" d="M428 767c9.054-.483 9.054-.483 13.063 1.563 2.564 3.226 2.937 5.335 2.937 9.437-1.588 3.574-2.716 4.81-6 7-3.353.264-6.63.088-10 0z" id="svg-layer-37" style="pointer-events: all;"/><path fill="#3B4F62" d="M355 761h8q.037 6.381.055 12.762.008 2.173.02 4.345c.013 2.078.018 4.155.023 6.233l.016 3.793C363 791 363 791 362 792c-3 .125-3 .125-6 0-1-1-1-1-1.114-3.867l.016-3.793.005-2.014c.005-2.13.018-4.259.03-6.389q.009-2.16.014-4.322.017-5.307.049-10.615" id="svg-layer-38" style="pointer-events: all;"/><path fill="#1876CD" d="M382.166 298.747C398.27 298.9 414.37 301.12 430 305v2l-1.922-.332q-3.092-.524-6.187-1.027c-2.725-.449-5.44-.919-8.157-1.407-14.524-2.497-29.02-2.945-43.734-3.234l.016 2.646q.025 4.845.039 9.69.008 2.099.02 4.198c.013 2.008.018 4.017.023 6.025l.016 3.665C370 330 370 330 369 331c-2.378.017-4.723-.029-7.098-.121l-2.148-.072q-3.408-.116-6.817-.245l-4.61-.158c-3.776-.128-7.552-.266-11.327-.404v21c-1.843-3.686-2.247-4.721-2.195-8.547l.02-2.558.05-2.645.027-2.691q.036-3.28.098-6.559c4.167-.03 8.333-.047 12.5-.062l3.555-.026c6.083-.017 11.933.143 17.945 1.088l-.108-2.646q-.193-4.845-.374-9.69-.08-2.099-.166-4.198-.122-3.012-.23-6.025l-.144-3.665c.05-6.464 9.26-4.024 14.188-4.03" id="svg-layer-39" style="pointer-events: all;"/><path fill="#38495E" d="M504 476h1c1.148 11.522 1.148 11.522 1 17h3l3 7h-2v2h-2v2l4 2v5h-2v-5h-2c.255 1.316.53 2.628.813 3.938l.457 2.214L510 514l3 1-1 3c-2.062.688-2.062.688-4 1l-.312 1.938L507 523l-3 1z" id="svg-layer-40" style="pointer-events: all;"/><path fill="#1E83C8" d="m638 349 3 2h3l-1 2c-1.154 3.692-1.154 3.692 0 6l-3.312.875C636 361 636 361 633 363c-2.187-.375-2.187-.375-4-1v-4h2l-.125-2.312C631 353 631 353 633 350l4 1z" id="svg-layer-41" style="pointer-events: all;"/><path fill="#FBFBFA" d="M655 767c8.625-.25 8.625-.25 12 2 .438 2.438.438 2.438 0 5-1.5 1.813-1.5 1.813-4 3-2.72.239-5.258.137-8 0zM690 767l4.313-.187 2.425-.106c2.262.293 2.262.293 4.063 1.645C702 770 702 770 701.875 772.562 701 775 701 775 698 777c-2.043.195-2.043.195-4.187.125L690 777z" id="svg-layer-42" style="pointer-events: all;"/><path fill="#4E6F8B" d="M643 421c0 4.127-1.618 5.047-4.437 8-4.526 4.788-8.629 9.758-12.653 14.98L624 446c-3 0-3 0-4.687-1.375C618 443 618 443 618 441h2v-2c1-1.562 1-1.562 3-3 2.679-.56 5.262-.776 8-1l-1-3 1.703-.184c3.29-1.169 4.788-3.254 7.047-5.878l2.422-2.786z" id="svg-layer-43" style="pointer-events: all;"/><path fill="#3786BC" d="M645 312c1.197 3.59.716 4.466-.582 7.93l-1.076 2.91-1.154 3.035-1.12 3.012c-1.34 3.594-2.69 7.18-4.133 10.735-1.206 3.069-2.036 6.205-2.935 9.378a643 643 0 0 1-3 9h-3c2.4-8.84 5.723-17.299 9.063-25.812l1.642-4.217A1666 1666 0 0 1 645 312" id="svg-layer-44" style="pointer-events: all;"/><path fill="#3886BB" d="M662 309c1.115 3.344.957 3.803-.263 6.92l-.91 2.366-1.01 2.538-1.014 2.61a1834 1834 0 0 1-3.24 8.253l-2.182 5.596A3793 3793 0 0 1 648 351h-2l-1 2c2.387-10.757 7.65-21.149 11.813-31.312l1.521-3.725q1.83-4.482 3.666-8.963" id="svg-layer-45" style="pointer-events: all;"/><path fill="#497698" d="M622 423c0 3.344-.475 4.068-2.375 6.688l-1.336 1.886L617 433h-2l-1 5 5 1-1 2c-2.314.73-4.648 1.401-7 2-1-1-1-1-1.437-3.633.623-4.8 3.095-6.915 6.437-10.242l1.734-1.797A408 408 0 0 1 622 423" id="svg-layer-46" style="pointer-events: all;"/><path fill="#3585BC" d="M612 325c0 3.879-1.13 4.544-3.75 7.313-2.419 2.618-4.466 5.014-6.437 8-1.955 2.897-4.052 4.58-6.813 6.687l-2 3-2-1c6.896-8.098 13.83-16.142 21-24" id="svg-layer-47" style="pointer-events: all;"/><path fill="#FBFBFA" d="M331 769c3.35 3.35 3.895 5.494 5 10h-9zM623 769h2c3 6.625 3 6.625 3 10h-8z" id="svg-layer-48" style="pointer-events: all;"/><path fill="#3384BC" d="M625 331h2c-1.594 3.795-4.019 6.384-6.812 9.375-3.512 3.796-6.932 7.609-10.188 11.625 0-3 0-3 2-5l.387-1.91c.818-2.788 2.179-3.723 4.426-5.527 3.165-2.628 5.637-5.327 8.187-8.563" id="svg-layer-49" style="pointer-events: all;"/><path fill="#465B71" d="M486 520c3.941 1.668 6.79 4.227 10 7l-2 2h-3c-1.605-1.75-1.605-1.75-3.187-4l-1.606-2.25L485 521z" id="svg-layer-50" style="pointer-events: all;"/><path fill="#4F6E88" d="M622 423c0 3.344-.475 4.068-2.375 6.688l-1.336 1.886L617 433h-2v2c-2.5 1.625-2.5 1.625-5 3 1.615-3.9 4.28-6.713 7.125-9.75l1.418-1.535A950 950 0 0 1 622 423" id="svg-layer-51" style="pointer-events: all;"/><path fill="#3587BD" d="M692 233c1 2 1 2 .223 4.383l-1.16 2.742-1.153 2.758L689 245l-1-4-4 3c1.364-2.992 2.95-5.29 5.125-7.75l1.633-1.86z" id="svg-layer-52" style="pointer-events: all;"/><path fill="#44596E" d="m517 516-8 6-3-2c7.225-5.887 7.225-5.887 11-4" id="svg-layer-53" style="pointer-events: all;"/><path fill="#3981B4" d="m607 352 2 1a367 367 0 0 1-3.312 4l-1.864 2.25C602 361 602 361 599 361a105 105 0 0 1 4-5h2z" id="svg-layer-54" style="pointer-events: all;"/><path fill="#4B6B88" d="M602 421c1.371 3.69.6 5.709-.937 9.25l-1.153 2.703L599 435l-2-1c1.418-4.472 3.113-8.711 5-13" id="svg-layer-55" style="pointer-events: all;"/><path fill="#587B95" d="m607 442 1 2 3-1v4l-3 1v-3h-2z" id="svg-layer-56" style="pointer-events: all;"/><path fill="#455B71" d="m545 554 2 1-2 4-3-1zm-5 4 2 1-3 2z" id="svg-layer-57" style="pointer-events: all;"/><path fill="#526E86" d="M609 438c1.063 1.875 1.063 1.875 2 4l-1 2-5-1z" id="svg-layer-58" style="pointer-events: all;"/><path fill="#477699" d="M626 436v5h-5l-1-2c2.625-3 2.625-3 6-3" id="svg-layer-59" style="pointer-events: all;"/><path fill="#4A6076" d="M548 523h2l2 5-3 2c-1-3-1-3-1-7" id="svg-layer-60" style="pointer-events: all;"/><path fill="#557791" d="M618 442h4l2 4h-3c-1.687-2-1.687-2-3-4" id="svg-layer-61" style="pointer-events: all;"/><path fill="#567A95" d="M613 435h1v5h-4c1.875-3.875 1.875-3.875 3-5" id="svg-layer-62" style="pointer-events: all;"/><path fill="#485C71" d="M544 528h2l-1 3-2-2z" id="svg-layer-63" style="pointer-events: all;"/><path fill="#3C6489" d="m609 441 2 2-3 1z" id="svg-layer-64" style="pointer-events: all;"/></svg>
